<svg xmlns="http://www.w3.org/2000/svg" width="1080" height="1080" viewBox="0 0 1080 1080" shape-rendering="geometricPrecision"><title>036</title><g><path d="M 0 0 L 1080 0 L 1080 1080 L 0 1080 L 0 0 Z" fill="#191919" fill-rule="nonzero"/><g transform="matrix(0 1 -1 0 669.53369 384)"><g fill="#fffaee"><path d="M 0.08 0 L 0.08 0.707 L 0.318 0.707 Q 0.482 0.707 0.563 0.616 Q 0.644 0.525 0.644 0.354 Q 0.644 0.184 0.561 0.092 Q 0.479 0 0.308 0 L 0.08 0 Z M 0.303 0.083 Q 0.393 0.083 0.446 0.113 Q 0.5 0.144 0.523 0.204 Q 0.546 0.265 0.546 0.354 Q 0.546 0.444 0.523 0.504 Q 0.5 0.564 0.448 0.594 Q 0.397 0.624 0.311 0.624 L 0.179 0.624 L 0.179 0.083 L 0.303 0.083 Z" transform="matrix(-26.66817 2.23082 2.23082 26.66817 131.99043 258.88361)"/><path d="M 0.08 0.707 L 0.511 0.707 L 0.511 0.624 L 0.179 0.624 L 0.179 0.396 L 0.488 0.396 L 0.488 0.314 L 0.179 0.314 L 0.179 0.083 L 0.516 0.083 L 0.516 0 L 0.08 0 L 0.08 0.707 Z" transform="matrix(-25.73437 7.34233 7.34233 25.73437 105.255 256.64716)"/><path d="M 0.456 0.531 Q 0.45 0.584 0.412 0.608 Q 0.374 0.633 0.306 0.633 Q 0.231 0.633 0.195 0.604 Q 0.159 0.575 0.159 0.522 Q 0.159 0.493 0.172 0.474 Q 0.185 0.455 0.205 0.443 Q 0.226 0.431 0.248 0.423 Q 0.271 0.416 0.29 0.41 L 0.359 0.391 Q 0.388 0.383 0.423 0.37 Q 0.459 0.357 0.491 0.335 Q 0.524 0.313 0.545 0.279 Q 0.566 0.245 0.566 0.194 Q 0.566 0.133 0.537 0.086 Q 0.508 0.04 0.45 0.013 Q 0.392 -0.013 0.304 -0.013 Q 0.18 -0.013 0.115 0.039 Q 0.05 0.092 0.043 0.183 L 0.143 0.183 Q 0.147 0.142 0.167 0.117 Q 0.188 0.093 0.223 0.082 Q 0.258 0.071 0.304 0.071 Q 0.382 0.071 0.425 0.103 Q 0.468 0.135 0.468 0.196 Q 0.468 0.231 0.449 0.251 Q 0.431 0.272 0.401 0.284 Q 0.371 0.297 0.334 0.307 L 0.247 0.332 Q 0.161 0.356 0.111 0.4 Q 0.062 0.444 0.062 0.518 Q 0.062 0.581 0.093 0.625 Q 0.124 0.67 0.18 0.693 Q 0.236 0.717 0.309 0.717 Q 0.384 0.717 0.437 0.693 Q 0.491 0.67 0.52 0.628 Q 0.55 0.586 0.552 0.531 L 0.456 0.531 Z" transform="matrix(-23.9263 11.98749 11.98749 23.9263 82.75844 250.22861)"/><path d="M 0.265 0 L 0.166 0 L 0.166 0.707 L 0.265 0.707 L 0.265 0 Z M 0.058 0.624 L 0.058 0.707 L 0.372 0.707 L 0.372 0.624 L 0.058 0.624 Z M 0.058 0 L 0.058 0.083 L 0.372 0.083 L 0.372 0 L 0.058 0 Z" transform="matrix(-21.51327 15.91688 15.91688 21.51327 60.86524 239.25974)"/><path d="M 0.558 0.278 L 0.375 0.278 L 0.375 0.363 L 0.656 0.363 L 0.656 0.28 Q 0.656 0.202 0.626 0.136 Q 0.596 0.07 0.532 0.03 Q 0.468 -0.01 0.365 -0.01 Q 0.214 -0.01 0.132 0.084 Q 0.05 0.178 0.05 0.354 Q 0.05 0.53 0.132 0.623 Q 0.214 0.717 0.365 0.717 Q 0.441 0.717 0.502 0.69 Q 0.563 0.663 0.602 0.612 Q 0.641 0.561 0.651 0.488 L 0.55 0.488 Q 0.538 0.562 0.491 0.597 Q 0.445 0.633 0.365 0.633 Q 0.259 0.633 0.204 0.564 Q 0.149 0.496 0.149 0.354 Q 0.149 0.212 0.204 0.143 Q 0.259 0.075 0.365 0.075 Q 0.415 0.075 0.449 0.087 Q 0.483 0.1 0.504 0.121 Q 0.526 0.143 0.537 0.169 Q 0.549 0.196 0.553 0.224 Q 0.558 0.253 0.558 0.278 Z" transform="matrix(-18.34729 19.48191 19.48191 18.34729 44.96919 227.49884)"/><path d="M 0.628 0 L 0.532 0 L 0.182 0.547 L 0.177 0.547 L 0.177 0 L 0.08 0 L 0.08 0.707 L 0.177 0.707 L 0.527 0.16 L 0.532 0.16 L 0.532 0.707 L 0.628 0.707 L 0.628 0 Z" transform="matrix(-13.89597 22.87072 22.87072 13.89597 26.39902 207.78026)"/><path d="" transform="matrix(-9.99315 24.82549 24.82549 9.99315 12.28013 184.54266)"/><path d="M 0.08 0 L 0.08 0.707 L 0.318 0.707 Q 0.482 0.707 0.563 0.616 Q 0.644 0.525 0.644 0.354 Q 0.644 0.184 0.561 0.092 Q 0.479 0 0.308 0 L 0.08 0 Z M 0.303 0.083 Q 0.393 0.083 0.446 0.113 Q 0.5 0.144 0.523 0.204 Q 0.546 0.265 0.546 0.354 Q 0.546 0.444 0.523 0.504 Q 0.5 0.564 0.448 0.594 Q 0.397 0.624 0.311 0.624 L 0.179 0.624 L 0.179 0.083 L 0.303 0.083 Z" transform="matrix(-5.82982 26.1186 26.1186 5.82982 6.72617 170.74524)"/><path d="M 0.08 0.707 L 0.511 0.707 L 0.511 0.624 L 0.179 0.624 L 0.179 0.396 L 0.488 0.396 L 0.488 0.314 L 0.179 0.314 L 0.179 0.083 L 0.516 0.083 L 0.516 0 L 0.08 0 L 0.08 0.707 Z" transform="matrix(-0.67213 26.75287 26.75287 0.67213 0.88186 144.56174)"/><path d="M 0.08 0.707 L 0.323 0.707 Q 0.415 0.707 0.469 0.677 Q 0.524 0.648 0.548 0.597 Q 0.572 0.547 0.572 0.482 Q 0.572 0.418 0.548 0.366 Q 0.524 0.315 0.47 0.285 Q 0.416 0.255 0.324 0.255 L 0.179 0.255 L 0.179 0 L 0.08 0 L 0.08 0.707 Z M 0.32 0.34 Q 0.384 0.34 0.417 0.357 Q 0.45 0.374 0.462 0.406 Q 0.474 0.438 0.474 0.482 Q 0.474 0.527 0.462 0.558 Q 0.451 0.589 0.417 0.605 Q 0.384 0.622 0.319 0.622 L 0.179 0.622 L 0.179 0.34 L 0.32 0.34 Z" transform="matrix(4.09317 26.44643 26.44643 -4.09317 0.28773 120.91356)"/><path d="M 0.333 0.584 L 0.327 0.584 L 0.118 0 L 0.02 0 L 0.283 0.707 L 0.381 0.707 L 0.644 0 L 0.542 0 L 0.333 0.584 Z M 0.511 0.188 L 0.15 0.188 L 0.15 0.274 L 0.511 0.274 L 0.511 0.188 Z" transform="matrix(9.02181 25.19474 25.19474 -9.02181 3.79429 98.25734)"/><path d="M 0.424 0.327 L 0.607 0 L 0.494 0 L 0.324 0.31 L 0.424 0.327 Z M 0.322 0.358 Q 0.387 0.358 0.42 0.372 Q 0.453 0.387 0.465 0.416 Q 0.477 0.445 0.477 0.489 Q 0.477 0.534 0.465 0.563 Q 0.453 0.593 0.42 0.607 Q 0.387 0.622 0.322 0.622 L 0.179 0.622 L 0.179 0.358 L 0.322 0.358 Z M 0.327 0.273 L 0.179 0.273 L 0.179 0 L 0.08 0 L 0.08 0.707 L 0.326 0.707 Q 0.42 0.707 0.474 0.679 Q 0.529 0.652 0.552 0.603 Q 0.575 0.554 0.575 0.489 Q 0.575 0.442 0.564 0.402 Q 0.553 0.363 0.526 0.334 Q 0.499 0.305 0.45 0.289 Q 0.402 0.273 0.327 0.273 Z" transform="matrix(13.78383 22.93848 22.93848 -13.78383 12.56679 73.75884)"/><path d="M 0.026 0.707 L 0.569 0.707 L 0.569 0.624 L 0.347 0.624 L 0.347 0 L 0.249 0 L 0.249 0.624 L 0.026 0.624 L 0.026 0.707 Z" transform="matrix(17.77712 20.00355 20.00355 -17.77712 25.2198 52.70223)"/><path d="M 0.211 0.707 L 0.431 0.137 L 0.436 0.137 L 0.657 0.707 L 0.787 0.707 L 0.787 0 L 0.692 0 L 0.692 0.533 L 0.686 0.533 L 0.479 0 L 0.387 0 L 0.181 0.533 L 0.175 0.533 L 0.175 0 L 0.08 0 L 0.08 0.707 L 0.211 0.707 Z" transform="matrix(21.55546 15.85969 15.85969 -21.55546 40.81158 35.1577)"/><path d="M 0.08 0.707 L 0.511 0.707 L 0.511 0.624 L 0.179 0.624 L 0.179 0.396 L 0.488 0.396 L 0.488 0.314 L 0.179 0.314 L 0.179 0.083 L 0.516 0.083 L 0.516 0 L 0.08 0 L 0.08 0.707 Z" transform="matrix(24.43014 10.9241 10.9241 -24.43014 66.12165 16.53551)"/><path d="M 0.628 0 L 0.532 0 L 0.182 0.547 L 0.177 0.547 L 0.177 0 L 0.08 0 L 0.08 0.707 L 0.177 0.707 L 0.527 0.16 L 0.532 0.16 L 0.532 0.707 L 0.628 0.707 L 0.628 0 Z" transform="matrix(26.08816 5.96456 5.96456 -26.08816 87.71627 6.87934)"/><path d="M 0.026 0.707 L 0.569 0.707 L 0.569 0.624 L 0.347 0.624 L 0.347 0 L 0.249 0 L 0.249 0.624 L 0.026 0.624 L 0.026 0.707 Z" transform="matrix(26.71097 1.64069 1.64069 -26.71097 113.54032 0.97517)"/></g></g><g transform="matrix(1 0 0 1 510.01773 465.80566)"><g fill="#fffaee"><path d="M 0.08 0.707 L 0.323 0.707 Q 0.415 0.707 0.469 0.677 Q 0.524 0.648 0.548 0.597 Q 0.572 0.547 0.572 0.482 Q 0.572 0.418 0.548 0.366 Q 0.524 0.315 0.47 0.285 Q 0.416 0.255 0.324 0.255 L 0.179 0.255 L 0.179 0 L 0.08 0 L 0.08 0.707 Z M 0.32 0.34 Q 0.384 0.34 0.417 0.357 Q 0.45 0.374 0.462 0.406 Q 0.474 0.438 0.474 0.482 Q 0.474 0.527 0.462 0.558 Q 0.451 0.589 0.417 0.605 Q 0.384 0.622 0.319 0.622 L 0.179 0.622 L 0.179 0.34 L 0.32 0.34 Z" transform="matrix(23.80834 0 0 -23.80834 0 22.46387)"/><path d="M 0.08 0 L 0.08 0.707 L 0.318 0.707 Q 0.482 0.707 0.563 0.616 Q 0.644 0.525 0.644 0.354 Q 0.644 0.184 0.561 0.092 Q 0.479 0 0.308 0 L 0.08 0 Z M 0.303 0.083 Q 0.393 0.083 0.446 0.113 Q 0.5 0.144 0.523 0.204 Q 0.546 0.265 0.546 0.354 Q 0.546 0.444 0.523 0.504 Q 0.5 0.564 0.448 0.594 Q 0.397 0.624 0.311 0.624 L 0.179 0.624 L 0.179 0.083 L 0.303 0.083 Z" transform="matrix(23.80834 0 0 -23.80834 21.72604 22.46387)"/><path d="M 0.31 0.41 L 0.494 0.707 L 0.608 0.707 L 0.375 0.343 L 0.31 0.41 Z M 0.323 0.297 L 0.137 0 L 0.022 0 L 0.259 0.367 L 0.323 0.297 Z M 0.253 0.351 L 0.022 0.707 L 0.139 0.707 L 0.317 0.422 L 0.38 0.357 L 0.61 0 L 0.493 0 L 0.31 0.293 L 0.253 0.351 Z" transform="matrix(23.80834 0 0 -23.80834 45.28886 22.46387)"/></g></g><g transform="matrix(1 0 0 1 388 540.20703)"><g fill="#fffaee"><path d="M 0.211 0.707 L 0.431 0.137 L 0.436 0.137 L 0.657 0.707 L 0.787 0.707 L 0.787 0 L 0.692 0 L 0.692 0.533 L 0.686 0.533 L 0.479 0 L 0.387 0 L 0.181 0.533 L 0.175 0.533 L 0.175 0 L 0.08 0 L 0.08 0.707 L 0.211 0.707 Z" transform="matrix(23.80834 0 0 -23.80834 0 22.46387)"/><path d="M 0.333 0.584 L 0.327 0.584 L 0.118 0 L 0.02 0 L 0.283 0.707 L 0.381 0.707 L 0.644 0 L 0.542 0 L 0.333 0.584 Z M 0.511 0.188 L 0.15 0.188 L 0.15 0.274 L 0.511 0.274 L 0.511 0.188 Z" transform="matrix(23.80834 0 0 -23.80834 28.02688 22.46387)"/><path d="M 0.08 0 L 0.08 0.707 L 0.318 0.707 Q 0.482 0.707 0.563 0.616 Q 0.644 0.525 0.644 0.354 Q 0.644 0.184 0.561 0.092 Q 0.479 0 0.308 0 L 0.08 0 Z M 0.303 0.083 Q 0.393 0.083 0.446 0.113 Q 0.5 0.144 0.523 0.204 Q 0.546 0.265 0.546 0.354 Q 0.546 0.444 0.523 0.504 Q 0.5 0.564 0.448 0.594 Q 0.397 0.624 0.311 0.624 L 0.179 0.624 L 0.179 0.083 L 0.303 0.083 Z" transform="matrix(23.80834 0 0 -23.80834 51.21769 22.46387)"/><path d="M 0.08 0.707 L 0.511 0.707 L 0.511 0.624 L 0.179 0.624 L 0.179 0.396 L 0.488 0.396 L 0.488 0.314 L 0.179 0.314 L 0.179 0.083 L 0.516 0.083 L 0.516 0 L 0.08 0 L 0.08 0.707 Z" transform="matrix(23.80834 0 0 -23.80834 75.12926 22.46387)"/><path d="" transform="matrix(23.80834 0 0 -23.80834 96.20429 22.46387)"/><path d="M 0.08 0.707 L 0.34 0.707 Q 0.423 0.707 0.473 0.682 Q 0.523 0.658 0.545 0.616 Q 0.568 0.574 0.568 0.519 Q 0.568 0.472 0.547 0.44 Q 0.527 0.409 0.496 0.392 Q 0.466 0.376 0.434 0.371 L 0.434 0.365 Q 0.46 0.364 0.488 0.352 Q 0.516 0.341 0.54 0.319 Q 0.565 0.298 0.58 0.265 Q 0.596 0.233 0.596 0.189 Q 0.596 0.134 0.573 0.091 Q 0.55 0.049 0.495 0.024 Q 0.441 0 0.348 0 L 0.08 0 L 0.08 0.707 Z M 0.347 0.083 Q 0.409 0.083 0.441 0.096 Q 0.474 0.109 0.486 0.133 Q 0.498 0.158 0.498 0.192 Q 0.498 0.23 0.483 0.258 Q 0.468 0.287 0.436 0.303 Q 0.404 0.319 0.352 0.319 L 0.179 0.319 L 0.179 0.083 L 0.347 0.083 Z M 0.336 0.401 Q 0.403 0.401 0.436 0.43 Q 0.47 0.459 0.47 0.517 Q 0.47 0.55 0.459 0.574 Q 0.449 0.598 0.42 0.611 Q 0.392 0.624 0.339 0.624 L 0.179 0.624 L 0.179 0.401 L 0.336 0.401 Z" transform="matrix(23.80834 0 0 -23.80834 109.44396 22.46387)"/><path d="M 0.13 0.707 L 0.322 0.384 L 0.326 0.384 L 0.518 0.707 L 0.631 0.707 L 0.374 0.291 L 0.374 0 L 0.275 0 L 0.275 0.291 L 0.016 0.707 L 0.13 0.707 Z" transform="matrix(23.80834 0 0 -23.80834 131.19325 22.46387)"/><path d="" transform="matrix(23.80834 0 0 -23.80834 153.98882 22.46387)"/><path d="M 0.08 0.707 L 0.179 0.707 L 0.179 0.396 L 0.53 0.396 L 0.53 0.707 L 0.629 0.707 L 0.629 0 L 0.53 0 L 0.53 0.313 L 0.179 0.313 L 0.179 0 L 0.08 0 L 0.08 0.707 Z" transform="matrix(23.80834 0 0 -23.80834 167.22849 22.46387)"/><path d="M 0.623 0.707 L 0.623 0.243 Q 0.623 0.167 0.594 0.109 Q 0.565 0.051 0.505 0.019 Q 0.445 -0.013 0.351 -0.013 Q 0.258 -0.013 0.197 0.019 Q 0.137 0.051 0.108 0.109 Q 0.079 0.167 0.079 0.243 L 0.079 0.707 L 0.178 0.707 L 0.178 0.251 Q 0.178 0.196 0.194 0.155 Q 0.21 0.115 0.247 0.093 Q 0.285 0.071 0.351 0.071 Q 0.417 0.071 0.455 0.093 Q 0.493 0.115 0.509 0.155 Q 0.525 0.196 0.525 0.251 L 0.525 0.707 L 0.623 0.707 Z" transform="matrix(23.80834 0 0 -23.80834 191.4888 22.46387)"/><path d="M 0.211 0.707 L 0.431 0.137 L 0.436 0.137 L 0.657 0.707 L 0.787 0.707 L 0.787 0 L 0.692 0 L 0.692 0.533 L 0.686 0.533 L 0.479 0 L 0.387 0 L 0.181 0.533 L 0.175 0.533 L 0.175 0 L 0.08 0 L 0.08 0.707 L 0.211 0.707 Z" transform="matrix(23.80834 0 0 -23.80834 215.58638 22.46387)"/><path d="M 0.333 0.584 L 0.327 0.584 L 0.118 0 L 0.02 0 L 0.283 0.707 L 0.381 0.707 L 0.644 0 L 0.542 0 L 0.333 0.584 Z M 0.511 0.188 L 0.15 0.188 L 0.15 0.274 L 0.511 0.274 L 0.511 0.188 Z" transform="matrix(23.80834 0 0 -23.80834 243.61327 22.46387)"/><path d="M 0.628 0 L 0.532 0 L 0.182 0.547 L 0.177 0.547 L 0.177 0 L 0.08 0 L 0.08 0.707 L 0.177 0.707 L 0.527 0.16 L 0.532 0.16 L 0.532 0.707 L 0.628 0.707 L 0.628 0 Z" transform="matrix(23.80834 0 0 -23.80834 266.80408 22.46387)"/><path d="M 0.456 0.531 Q 0.45 0.584 0.412 0.608 Q 0.374 0.633 0.306 0.633 Q 0.231 0.633 0.195 0.604 Q 0.159 0.575 0.159 0.522 Q 0.159 0.493 0.172 0.474 Q 0.185 0.455 0.205 0.443 Q 0.226 0.431 0.248 0.423 Q 0.271 0.416 0.29 0.41 L 0.359 0.391 Q 0.388 0.383 0.423 0.37 Q 0.459 0.357 0.491 0.335 Q 0.524 0.313 0.545 0.279 Q 0.566 0.245 0.566 0.194 Q 0.566 0.133 0.537 0.086 Q 0.508 0.04 0.45 0.013 Q 0.392 -0.013 0.304 -0.013 Q 0.18 -0.013 0.115 0.039 Q 0.05 0.092 0.043 0.183 L 0.143 0.183 Q 0.147 0.142 0.167 0.117 Q 0.188 0.093 0.223 0.082 Q 0.258 0.071 0.304 0.071 Q 0.382 0.071 0.425 0.103 Q 0.468 0.135 0.468 0.196 Q 0.468 0.231 0.449 0.251 Q 0.431 0.272 0.401 0.284 Q 0.371 0.297 0.334 0.307 L 0.247 0.332 Q 0.161 0.356 0.111 0.4 Q 0.062 0.444 0.062 0.518 Q 0.062 0.581 0.093 0.625 Q 0.124 0.67 0.18 0.693 Q 0.236 0.717 0.309 0.717 Q 0.384 0.717 0.437 0.693 Q 0.491 0.67 0.52 0.628 Q 0.55 0.586 0.552 0.531 L 0.456 0.531 Z" transform="matrix(23.80834 0 0 -23.80834 291.04114 22.46387)"/></g></g><g transform="matrix(1 0 0 1 478 624)"><g fill="#fffaee"><path d="M 0.232 0 L 0.172 0 L 0.172 0.707 L 0.232 0.707 L 0.232 0 Z M 0.063 0.655 L 0.063 0.707 L 0.34 0.707 L 0.34 0.655 L 0.063 0.655 Z M 0.063 0 L 0.063 0.052 L 0.34 0.052 L 0.34 0 L 0.063 0 Z" transform="matrix(12 0 0 -12 0 11.266)"/><path d="M 0.617 0 L 0.55 0 L 0.155 0.607 L 0.147 0.607 L 0.147 0 L 0.088 0 L 0.088 0.707 L 0.156 0.707 L 0.55 0.101 L 0.558 0.101 L 0.558 0.707 L 0.617 0.707 L 0.617 0 Z" transform="matrix(12 0 0 -12 4.53562 11.266)"/><path d="M 0.03 0.707 L 0.552 0.707 L 0.552 0.655 L 0.321 0.655 L 0.321 0 L 0.261 0 L 0.261 0.655 L 0.03 0.655 L 0.03 0.707 Z" transform="matrix(12 0 0 -12 12.20016 11.266)"/><path d="M 0.088 0.707 L 0.486 0.707 L 0.486 0.655 L 0.148 0.655 L 0.148 0.38 L 0.463 0.38 L 0.463 0.328 L 0.148 0.328 L 0.148 0.052 L 0.491 0.052 L 0.491 0 L 0.088 0 L 0.088 0.707 Z" transform="matrix(12 0 0 -12 18.38812 11.266)"/><path d="M 0.617 0 L 0.55 0 L 0.155 0.607 L 0.147 0.607 L 0.147 0 L 0.088 0 L 0.088 0.707 L 0.156 0.707 L 0.55 0.101 L 0.558 0.101 L 0.558 0.707 L 0.617 0.707 L 0.617 0 Z" transform="matrix(12 0 0 -12 24.59953 11.266)"/><path d="M 0.03 0.707 L 0.552 0.707 L 0.552 0.655 L 0.321 0.655 L 0.321 0 L 0.261 0 L 0.261 0.655 L 0.03 0.655 L 0.03 0.707 Z" transform="matrix(12 0 0 -12 32.26406 11.266)"/><path d="M 0.232 0 L 0.172 0 L 0.172 0.707 L 0.232 0.707 L 0.232 0 Z M 0.063 0.655 L 0.063 0.707 L 0.34 0.707 L 0.34 0.655 L 0.063 0.655 Z M 0.063 0 L 0.063 0.052 L 0.34 0.052 L 0.34 0 L 0.063 0 Z" transform="matrix(12 0 0 -12 38.76844 11.266)"/><path d="M 0.652 0.354 Q 0.652 0.179 0.576 0.084 Q 0.501 -0.01 0.355 -0.01 Q 0.209 -0.01 0.133 0.084 Q 0.058 0.179 0.058 0.354 Q 0.058 0.529 0.133 0.623 Q 0.209 0.717 0.355 0.717 Q 0.501 0.717 0.576 0.623 Q 0.652 0.529 0.652 0.354 Z M 0.592 0.354 Q 0.592 0.513 0.533 0.588 Q 0.475 0.663 0.355 0.663 Q 0.235 0.663 0.176 0.588 Q 0.118 0.513 0.118 0.354 Q 0.118 0.195 0.176 0.119 Q 0.235 0.044 0.355 0.044 Q 0.475 0.044 0.533 0.119 Q 0.592 0.195 0.592 0.354 Z" transform="matrix(12 0 0 -12 43.12828 11.266)"/><path d="M 0.617 0 L 0.55 0 L 0.155 0.607 L 0.147 0.607 L 0.147 0 L 0.088 0 L 0.088 0.707 L 0.156 0.707 L 0.55 0.101 L 0.558 0.101 L 0.558 0.707 L 0.617 0.707 L 0.617 0 Z" transform="matrix(12 0 0 -12 51.16781 11.266)"/><path d="" transform="matrix(12 0 0 -12 59.14875 11.266)"/><path d="M 0.652 0.354 Q 0.652 0.179 0.576 0.084 Q 0.501 -0.01 0.355 -0.01 Q 0.209 -0.01 0.133 0.084 Q 0.058 0.179 0.058 0.354 Q 0.058 0.529 0.133 0.623 Q 0.209 0.717 0.355 0.717 Q 0.501 0.717 0.576 0.623 Q 0.652 0.529 0.652 0.354 Z M 0.592 0.354 Q 0.592 0.513 0.533 0.588 Q 0.475 0.663 0.355 0.663 Q 0.235 0.663 0.176 0.588 Q 0.118 0.513 0.118 0.354 Q 0.118 0.195 0.176 0.119 Q 0.235 0.044 0.355 0.044 Q 0.475 0.044 0.533 0.119 Q 0.592 0.195 0.592 0.354 Z" transform="matrix(12 0 0 -12 91.4124 11.266)"/><path d="M 0.32 0.069 L 0.326 0.069 L 0.559 0.707 L 0.622 0.707 L 0.364 0 L 0.281 0 L 0.024 0.707 L 0.088 0.707 L 0.32 0.069 Z" transform="matrix(12 0 0 -12 99.14724 11.266)"/><path d="M 0.088 0.707 L 0.486 0.707 L 0.486 0.655 L 0.148 0.655 L 0.148 0.38 L 0.463 0.38 L 0.463 0.328 L 0.148 0.328 L 0.148 0.052 L 0.491 0.052 L 0.491 0 L 0.088 0 L 0.088 0.707 Z" transform="matrix(12 0 0 -12 106.42505 11.266)"/><path d="M 0.398 0.324 L 0.582 0 L 0.515 0 L 0.338 0.313 L 0.398 0.324 Z M 0.32 0.343 Q 0.391 0.343 0.43 0.361 Q 0.469 0.379 0.485 0.414 Q 0.501 0.449 0.501 0.5 Q 0.501 0.552 0.485 0.586 Q 0.469 0.62 0.43 0.637 Q 0.391 0.655 0.32 0.655 L 0.148 0.655 L 0.148 0.343 L 0.32 0.343 Z M 0.325 0.291 L 0.148 0.291 L 0.148 0 L 0.088 0 L 0.088 0.707 L 0.324 0.707 Q 0.41 0.707 0.462 0.682 Q 0.514 0.658 0.537 0.612 Q 0.561 0.566 0.561 0.5 Q 0.561 0.448 0.55 0.409 Q 0.539 0.37 0.512 0.343 Q 0.485 0.317 0.439 0.304 Q 0.394 0.291 0.325 0.291 Z" transform="matrix(12 0 0 -12 112.63646 11.266)"/><path d="" transform="matrix(12 0 0 -12 119.59786 11.266)"/><path d="M 0.03 0.707 L 0.552 0.707 L 0.552 0.655 L 0.321 0.655 L 0.321 0 L 0.261 0 L 0.261 0.655 L 0.03 0.655 L 0.03 0.707 Z" transform="matrix(12 0 0 -12 151.86151 11.266)"/><path d="M 0.232 0 L 0.172 0 L 0.172 0.707 L 0.232 0.707 L 0.232 0 Z M 0.063 0.655 L 0.063 0.707 L 0.34 0.707 L 0.34 0.655 L 0.063 0.655 Z M 0.063 0 L 0.063 0.052 L 0.34 0.052 L 0.34 0 L 0.063 0 Z" transform="matrix(12 0 0 -12 158.36589 11.266)"/><path d="M 0.15 0.707 L 0.41 0.101 L 0.417 0.101 L 0.677 0.707 L 0.737 0.707 L 0.737 0 L 0.679 0 L 0.679 0.564 L 0.674 0.564 L 0.429 0 L 0.395 0 L 0.15 0.564 L 0.146 0.564 L 0.146 0 L 0.088 0 L 0.088 0.707 L 0.15 0.707 Z" transform="matrix(12 0 0 -12 162.90152 11.266)"/><path d="M 0.088 0.707 L 0.486 0.707 L 0.486 0.655 L 0.148 0.655 L 0.148 0.38 L 0.463 0.38 L 0.463 0.328 L 0.148 0.328 L 0.148 0.052 L 0.491 0.052 L 0.491 0 L 0.088 0 L 0.088 0.707 Z" transform="matrix(12 0 0 -12 172.32385 11.266)"/><path d="" transform="matrix(12 0 0 -12 178.53526 11.266)"/><path d="M 0.088 0.707 L 0.148 0.707 L 0.148 0.052 L 0.485 0.052 L 0.485 0 L 0.088 0 L 0.088 0.707 Z" transform="matrix(12 0 0 -12 210.79892 11.266)"/><path d="M 0.088 0.707 L 0.486 0.707 L 0.486 0.655 L 0.148 0.655 L 0.148 0.38 L 0.463 0.38 L 0.463 0.328 L 0.148 0.328 L 0.148 0.052 L 0.491 0.052 L 0.491 0 L 0.088 0 L 0.088 0.707 Z" transform="matrix(12 0 0 -12 216.19 11.266)"/><path d="M 0.312 0.63 L 0.308 0.63 L 0.086 0 L 0.025 0 L 0.278 0.707 L 0.346 0.707 L 0.598 0 L 0.534 0 L 0.312 0.63 Z M 0.473 0.212 L 0.15 0.212 L 0.15 0.264 L 0.473 0.264 L 0.473 0.212 Z" transform="matrix(12 0 0 -12 222.38969 11.266)"/><path d="M 0.088 0 L 0.088 0.707 L 0.307 0.707 Q 0.461 0.707 0.54 0.617 Q 0.619 0.527 0.619 0.354 Q 0.619 0.182 0.538 0.091 Q 0.458 0 0.297 0 L 0.088 0 Z M 0.292 0.052 Q 0.393 0.052 0.451 0.088 Q 0.509 0.125 0.534 0.193 Q 0.559 0.261 0.559 0.354 Q 0.559 0.448 0.534 0.515 Q 0.51 0.583 0.453 0.619 Q 0.397 0.655 0.3 0.655 L 0.148 0.655 L 0.148 0.052 L 0.292 0.052 Z" transform="matrix(12 0 0 -12 229.38626 11.266)"/><path d="M 0.472 0.554 Q 0.464 0.616 0.417 0.64 Q 0.371 0.664 0.295 0.664 Q 0.208 0.664 0.166 0.63 Q 0.124 0.597 0.124 0.532 Q 0.124 0.494 0.138 0.47 Q 0.153 0.446 0.176 0.431 Q 0.199 0.417 0.225 0.408 Q 0.251 0.4 0.273 0.394 L 0.35 0.373 Q 0.379 0.365 0.413 0.353 Q 0.447 0.341 0.477 0.32 Q 0.508 0.299 0.527 0.266 Q 0.546 0.233 0.546 0.184 Q 0.546 0.128 0.519 0.083 Q 0.492 0.038 0.436 0.012 Q 0.38 -0.013 0.293 -0.013 Q 0.177 -0.013 0.115 0.034 Q 0.053 0.081 0.045 0.161 L 0.107 0.161 Q 0.113 0.113 0.138 0.087 Q 0.163 0.061 0.202 0.05 Q 0.242 0.04 0.293 0.04 Q 0.385 0.04 0.435 0.075 Q 0.486 0.111 0.486 0.186 Q 0.486 0.231 0.464 0.257 Q 0.443 0.283 0.407 0.298 Q 0.372 0.313 0.331 0.324 L 0.235 0.35 Q 0.153 0.373 0.108 0.414 Q 0.064 0.455 0.064 0.527 Q 0.064 0.586 0.092 0.628 Q 0.121 0.671 0.173 0.694 Q 0.226 0.717 0.298 0.717 Q 0.368 0.717 0.418 0.696 Q 0.469 0.676 0.498 0.639 Q 0.528 0.603 0.532 0.554 L 0.472 0.554 Z" transform="matrix(12 0 0 -12 237.02734 11.266)"/><path d="M 0.03 0.707 L 0.552 0.707 L 0.552 0.655 L 0.321 0.655 L 0.321 0 L 0.261 0 L 0.261 0.655 L 0.03 0.655 L 0.03 0.707 Z" transform="matrix(12 0 0 -12 0 25.266)"/><path d="M 0.652 0.354 Q 0.652 0.179 0.576 0.084 Q 0.501 -0.01 0.355 -0.01 Q 0.209 -0.01 0.133 0.084 Q 0.058 0.179 0.058 0.354 Q 0.058 0.529 0.133 0.623 Q 0.209 0.717 0.355 0.717 Q 0.501 0.717 0.576 0.623 Q 0.652 0.529 0.652 0.354 Z M 0.592 0.354 Q 0.592 0.513 0.533 0.588 Q 0.475 0.663 0.355 0.663 Q 0.235 0.663 0.176 0.588 Q 0.118 0.513 0.118 0.354 Q 0.118 0.195 0.176 0.119 Q 0.235 0.044 0.355 0.044 Q 0.475 0.044 0.533 0.119 Q 0.592 0.195 0.592 0.354 Z" transform="matrix(12 0 0 -12 9.255 25.266)"/><path d="" transform="matrix(12 0 0 -12 20.65453 25.266)"/><path d="M 0.088 0.707 L 0.148 0.707 L 0.148 0.38 L 0.543 0.38 L 0.543 0.707 L 0.603 0.707 L 0.603 0 L 0.543 0 L 0.543 0.328 L 0.148 0.328 L 0.148 0 L 0.088 0 L 0.088 0.707 Z" transform="matrix(12 0 0 -12 26.48766 25.266)"/><path d="M 0.232 0 L 0.172 0 L 0.172 0.707 L 0.232 0.707 L 0.232 0 Z M 0.063 0.655 L 0.063 0.707 L 0.34 0.707 L 0.34 0.655 L 0.063 0.655 Z M 0.063 0 L 0.063 0.052 L 0.34 0.052 L 0.34 0 L 0.063 0 Z" transform="matrix(12 0 0 -12 37.84031 25.266)"/><path d="M 0.581 0.3 L 0.38 0.3 L 0.38 0.352 L 0.641 0.352 L 0.641 0.272 Q 0.641 0.197 0.611 0.132 Q 0.582 0.068 0.52 0.029 Q 0.459 -0.01 0.362 -0.01 Q 0.217 -0.01 0.137 0.084 Q 0.058 0.179 0.058 0.354 Q 0.058 0.529 0.137 0.623 Q 0.217 0.717 0.362 0.717 Q 0.431 0.717 0.487 0.693 Q 0.543 0.67 0.581 0.623 Q 0.619 0.576 0.633 0.503 L 0.571 0.503 Q 0.555 0.589 0.5 0.626 Q 0.446 0.663 0.362 0.663 Q 0.244 0.663 0.181 0.589 Q 0.118 0.515 0.118 0.354 Q 0.118 0.194 0.181 0.119 Q 0.244 0.044 0.362 0.044 Q 0.423 0.044 0.463 0.061 Q 0.503 0.079 0.527 0.108 Q 0.551 0.137 0.562 0.171 Q 0.574 0.205 0.577 0.239 Q 0.581 0.273 0.581 0.3 Z" transform="matrix(12 0 0 -12 45.56016 25.266)"/><path d="M 0.088 0.707 L 0.148 0.707 L 0.148 0.38 L 0.543 0.38 L 0.543 0.707 L 0.603 0.707 L 0.603 0 L 0.543 0 L 0.543 0.328 L 0.148 0.328 L 0.148 0 L 0.088 0 L 0.088 0.707 Z" transform="matrix(12 0 0 -12 56.79562 25.266)"/><path d="" transform="matrix(12 0 0 -12 67.9725 25.266)"/><path d="M 0.088 0.707 L 0.491 0.707 L 0.491 0.655 L 0.148 0.655 L 0.148 0.38 L 0.458 0.38 L 0.458 0.328 L 0.148 0.328 L 0.148 0 L 0.088 0 L 0.088 0.707 Z" transform="matrix(12 0 0 -12 73.80563 25.266)"/><path d="M 0.652 0.354 Q 0.652 0.179 0.576 0.084 Q 0.501 -0.01 0.355 -0.01 Q 0.209 -0.01 0.133 0.084 Q 0.058 0.179 0.058 0.354 Q 0.058 0.529 0.133 0.623 Q 0.209 0.717 0.355 0.717 Q 0.501 0.717 0.576 0.623 Q 0.652 0.529 0.652 0.354 Z M 0.592 0.354 Q 0.592 0.513 0.533 0.588 Q 0.475 0.663 0.355 0.663 Q 0.235 0.663 0.176 0.588 Q 0.118 0.513 0.118 0.354 Q 0.118 0.195 0.176 0.119 Q 0.235 0.044 0.355 0.044 Q 0.475 0.044 0.533 0.119 Q 0.592 0.195 0.592 0.354 Z" transform="matrix(12 0 0 -12 82.93172 25.266)"/><path d="M 0.398 0.324 L 0.582 0 L 0.515 0 L 0.338 0.313 L 0.398 0.324 Z M 0.32 0.343 Q 0.391 0.343 0.43 0.361 Q 0.469 0.379 0.485 0.414 Q 0.501 0.449 0.501 0.5 Q 0.501 0.552 0.485 0.586 Q 0.469 0.62 0.43 0.637 Q 0.391 0.655 0.32 0.655 L 0.148 0.655 L 0.148 0.343 L 0.32 0.343 Z M 0.325 0.291 L 0.148 0.291 L 0.148 0 L 0.088 0 L 0.088 0.707 L 0.324 0.707 Q 0.41 0.707 0.462 0.682 Q 0.514 0.658 0.537 0.612 Q 0.561 0.566 0.561 0.5 Q 0.561 0.448 0.55 0.409 Q 0.539 0.37 0.512 0.343 Q 0.485 0.317 0.439 0.304 Q 0.394 0.291 0.325 0.291 Z" transform="matrix(12 0 0 -12 94.33125 25.266)"/><path d="M 0.15 0.707 L 0.41 0.101 L 0.417 0.101 L 0.677 0.707 L 0.737 0.707 L 0.737 0 L 0.679 0 L 0.679 0.564 L 0.674 0.564 L 0.429 0 L 0.395 0 L 0.15 0.564 L 0.146 0.564 L 0.146 0 L 0.088 0 L 0.088 0.707 L 0.15 0.707 Z" transform="matrix(12 0 0 -12 104.65266 25.266)"/><path d="M 0.472 0.554 Q 0.464 0.616 0.417 0.64 Q 0.371 0.664 0.295 0.664 Q 0.208 0.664 0.166 0.63 Q 0.124 0.597 0.124 0.532 Q 0.124 0.494 0.138 0.47 Q 0.153 0.446 0.176 0.431 Q 0.199 0.417 0.225 0.408 Q 0.251 0.4 0.273 0.394 L 0.35 0.373 Q 0.379 0.365 0.413 0.353 Q 0.447 0.341 0.477 0.32 Q 0.508 0.299 0.527 0.266 Q 0.546 0.233 0.546 0.184 Q 0.546 0.128 0.519 0.083 Q 0.492 0.038 0.436 0.012 Q 0.38 -0.013 0.293 -0.013 Q 0.177 -0.013 0.115 0.034 Q 0.053 0.081 0.045 0.161 L 0.107 0.161 Q 0.113 0.113 0.138 0.087 Q 0.163 0.061 0.202 0.05 Q 0.242 0.04 0.293 0.04 Q 0.385 0.04 0.435 0.075 Q 0.486 0.111 0.486 0.186 Q 0.486 0.231 0.464 0.257 Q 0.443 0.283 0.407 0.298 Q 0.372 0.313 0.331 0.324 L 0.235 0.35 Q 0.153 0.373 0.108 0.414 Q 0.064 0.455 0.064 0.527 Q 0.064 0.586 0.092 0.628 Q 0.121 0.671 0.173 0.694 Q 0.226 0.717 0.298 0.717 Q 0.368 0.717 0.418 0.696 Q 0.469 0.676 0.498 0.639 Q 0.528 0.603 0.532 0.554 L 0.472 0.554 Z" transform="matrix(12 0 0 -12 117.435 25.266)"/><path d="" transform="matrix(12 0 0 -12 127.28766 25.266)"/><path d="M 0.652 0.354 Q 0.652 0.179 0.576 0.084 Q 0.501 -0.01 0.355 -0.01 Q 0.209 -0.01 0.133 0.084 Q 0.058 0.179 0.058 0.354 Q 0.058 0.529 0.133 0.623 Q 0.209 0.717 0.355 0.717 Q 0.501 0.717 0.576 0.623 Q 0.652 0.529 0.652 0.354 Z M 0.592 0.354 Q 0.592 0.513 0.533 0.588 Q 0.475 0.663 0.355 0.663 Q 0.235 0.663 0.176 0.588 Q 0.118 0.513 0.118 0.354 Q 0.118 0.195 0.176 0.119 Q 0.235 0.044 0.355 0.044 Q 0.475 0.044 0.533 0.119 Q 0.592 0.195 0.592 0.354 Z" transform="matrix(12 0 0 -12 133.12079 25.266)"/><path d="M 0.088 0.707 L 0.491 0.707 L 0.491 0.655 L 0.148 0.655 L 0.148 0.38 L 0.458 0.38 L 0.458 0.328 L 0.148 0.328 L 0.148 0 L 0.088 0 L 0.088 0.707 Z" transform="matrix(12 0 0 -12 144.52031 25.266)"/><path d="" transform="matrix(12 0 0 -12 153.91594 25.266)"/><path d="M 0.554 0.502 Q 0.541 0.583 0.489 0.623 Q 0.438 0.663 0.353 0.663 Q 0.241 0.663 0.179 0.587 Q 0.118 0.511 0.118 0.355 Q 0.118 0.198 0.179 0.121 Q 0.241 0.045 0.353 0.045 Q 0.438 0.045 0.489 0.085 Q 0.541 0.125 0.555 0.205 L 0.618 0.205 Q 0.601 0.1 0.534 0.045 Q 0.467 -0.01 0.353 -0.01 Q 0.205 -0.01 0.131 0.085 Q 0.058 0.181 0.058 0.355 Q 0.058 0.528 0.131 0.622 Q 0.205 0.717 0.353 0.717 Q 0.424 0.717 0.479 0.693 Q 0.535 0.669 0.57 0.621 Q 0.606 0.573 0.617 0.502 L 0.554 0.502 Z" transform="matrix(12 0 0 -12 159.74907 25.266)"/><path d="M 0.398 0.324 L 0.582 0 L 0.515 0 L 0.338 0.313 L 0.398 0.324 Z M 0.32 0.343 Q 0.391 0.343 0.43 0.361 Q 0.469 0.379 0.485 0.414 Q 0.501 0.449 0.501 0.5 Q 0.501 0.552 0.485 0.586 Q 0.469 0.62 0.43 0.637 Q 0.391 0.655 0.32 0.655 L 0.148 0.655 L 0.148 0.343 L 0.32 0.343 Z M 0.325 0.291 L 0.148 0.291 L 0.148 0 L 0.088 0 L 0.088 0.707 L 0.324 0.707 Q 0.41 0.707 0.462 0.682 Q 0.514 0.658 0.537 0.612 Q 0.561 0.566 0.561 0.5 Q 0.561 0.448 0.55 0.409 Q 0.539 0.37 0.512 0.343 Q 0.485 0.317 0.439 0.304 Q 0.394 0.291 0.325 0.291 Z" transform="matrix(12 0 0 -12 170.715 25.266)"/><path d="M 0.312 0.63 L 0.308 0.63 L 0.086 0 L 0.025 0 L 0.278 0.707 L 0.346 0.707 L 0.598 0 L 0.534 0 L 0.312 0.63 Z M 0.473 0.212 L 0.15 0.212 L 0.15 0.264 L 0.473 0.264 L 0.473 0.212 Z" transform="matrix(12 0 0 -12 181.03641 25.266)"/><path d="M 0.088 0.707 L 0.491 0.707 L 0.491 0.655 L 0.148 0.655 L 0.148 0.38 L 0.458 0.38 L 0.458 0.328 L 0.148 0.328 L 0.148 0 L 0.088 0 L 0.088 0.707 Z" transform="matrix(12 0 0 -12 191.39297 25.266)"/><path d="M 0.03 0.707 L 0.552 0.707 L 0.552 0.655 L 0.321 0.655 L 0.321 0 L 0.261 0 L 0.261 0.655 L 0.03 0.655 L 0.03 0.707 Z" transform="matrix(12 0 0 -12 200.64796 25.266)"/></g></g><g transform="matrix(1 0 0 1 357 622)"><path d="M 0 15.61644 C 0 6.99172 6.99172 0 15.61643 0 L 79.38357 0 C 88.00829 0 95 6.99172 95 15.61644 L 95 15.61644 C 95 24.24116 88.00829 31.23288 79.38357 31.23288 L 15.61643 31.23288 C 6.99171 31.23288 0 24.24116 0 15.61644 L 0 15.61644 Z" fill="none" stroke="#fffaee" stroke-width="0.65068" stroke-linejoin="miter"/></g><g transform="matrix(1 0 0 1 357 673)"><path d="M 0 15.5 C 0 6.93959 6.93959 0 15.5 0 L 15.5 0 C 24.06041 0 31 6.93959 31 15.5 L 31 15.5 C 31 24.06041 24.06041 31 15.5 31 L 15.5 31 C 6.93959 31 0 24.06041 0 15.5 L 0 15.5 Z" fill="none" stroke="#fffaee" stroke-width="0.65068" stroke-linejoin="miter"/></g><g transform="matrix(1 0 0 1 432.01953 673)"><g transform="matrix(1 0 0 1 -0.00001 0)"><path d="M 17.0672 26.33049 L 17.0672 30.92507 C 16.56342 30.97264 16.05283 30.99983 15.52863 30.99983 C 6.97801 30.99983 0 24.0332 0 15.49652 C 0 6.95984 6.97801 0 15.52863 0 C 16.04602 0 16.56342 0.02719 17.0672 0.07476 L 17.0672 4.66935 C 16.56342 4.59458 16.05283 4.5606 15.52863 4.5606 C 9.4901 4.5606 4.56805 9.48142 4.56805 15.49652 C 4.56805 21.51161 9.49691 26.43244 15.52863 26.43244 C 16.04602 26.43244 16.56342 26.39166 17.0672 26.32369 L 17.0672 26.33049 Z" fill="#fffaee" fill-rule="evenodd"/></g><g transform="matrix(1 0 0 1 18.85769 0)"><path d="M 4.82674 13.13126 L 13.79263 13.13126 L 13.79263 17.86857 L 4.82674 17.86857 C 5.91599 22.76221 10.30023 26.43924 15.52182 26.43924 C 16.03922 26.43924 16.55661 26.39845 17.06039 26.33049 L 17.06039 30.92507 C 16.5498 30.97264 16.03922 30.99983 15.52182 30.99983 C 6.9644 30.99983 0 24.0332 0 15.50331 C 0 6.97343 6.9644 0 15.52182 0 C 16.03922 0 16.55661 0.02719 17.06039 0.07476 L 17.06039 4.66935 C 16.5498 4.59458 16.03922 4.5606 15.52182 4.5606 C 10.30023 4.5606 5.90918 8.23762 4.82674 13.13126 Z" fill="#fffaee" fill-rule="evenodd"/></g></g><g transform="matrix(-1 0 0 1 542.8725 673.23938)"><path d="M 27.04281 0 L 3.71802 0 C 1.66803 0 0 1.66803 0 3.71802 L 0 27.04257 C 0 29.09279 1.66803 30.76059 3.71802 30.76059 L 27.04257 30.76059 C 29.09279 30.76059 30.76059 29.09256 30.76059 27.04257 L 30.76059 3.71802 C 30.76059 1.6678 29.09256 0 27.04257 0 L 27.04281 0 Z M 3.71802 2.10639 L 27.04257 2.10639 C 27.93124 2.10639 28.6542 2.82935 28.6542 3.71802 L 28.6542 10.85331 L 13.2024 10.85331 L 19.67909 4.83441 L 16.58293 4.83441 L 8.97838 11.9044 L 15.70878 18.16343 L 2.10639 18.16343 L 2.10639 3.71802 C 2.10639 2.82935 2.82935 2.10639 3.71802 2.10639 Z M 27.04281 28.65443 L 3.71802 28.65443 C 2.82935 28.65443 2.10639 27.93147 2.10639 27.04281 L 2.10639 20.26982 L 15.82299 20.26982 L 9.3463 26.28872 L 12.44246 26.28872 L 20.04701 19.21873 L 13.31662 12.9597 L 28.65466 12.9597 L 28.65466 27.04257 C 28.65466 27.93124 27.93171 28.6542 27.04304 28.6542 L 27.04281 28.65443 Z" fill="#fffaee" fill-rule="nonzero"/></g><g transform="matrix(1 0 0 1 587.01929 673.00073)"><g transform="matrix(0 1 -1 0 28.42854 23.28664)"><path d="M 0.60781 3.57866 C 0.45334 3.57866 0.29668 3.51523 0.17809 3.38867 C -0.05936 3.13525 -0.05936 2.72457 0.17809 2.47115 L 2.31299 0.19007 C 2.55045 -0.06072 2.93525 -0.06598 3.17271 0.19007 C 3.41016 0.44349 3.41016 0.85417 3.17271 1.10759 L 1.0378 3.38867 C 0.91894 3.51552 0.76474 3.57866 0.60808 3.57866 L 0.60781 3.57866 Z" fill="#fffaee" fill-rule="nonzero"/></g><g transform="matrix(0 1 -1 0 31.64276 18.91101)"><path d="M 0.60874 5.58112 C 0.53041 5.58112 0.45208 5.56592 0.3784 5.53289 C 0.06727 5.3961 -0.08227 5.01582 0.04591 4.68641 L 1.69878 0.4031 C 1.82696 0.06842 2.18794 -0.08591 2.49194 0.04825 C 2.80307 0.18505 2.95261 0.56532 2.82444 0.89474 L 1.17156 5.17805 C 1.07406 5.42884 0.84866 5.58112 0.60874 5.58112 Z" fill="#fffaee" fill-rule="nonzero"/></g><g transform="matrix(0 1 -1 0 22.99841 18.86754)"><path d="M 0.17758 2.67334 C -0.05906 2.4208 -0.05933 2.00837 0.17758 1.75582 L 1.64531 0.18941 C 1.88194 -0.06314 2.26839 -0.06314 2.50502 0.18941 C 2.74165 0.44195 2.74165 0.85438 2.50502 1.10693 L 1.03729 2.67334 C 0.80066 2.92588 0.41421 2.92588 0.17758 2.67334 Z" fill="#fffaee" fill-rule="nonzero"/></g><g transform="matrix(0 1 -1 0 33.082 14.89073)"><path d="M 0.60802 4.52153 C 0.27306 4.52153 0 4.23011 0 3.87263 L 0 0.6489 C 0 0.29142 0.27306 0 0.60802 0 C 0.94297 0 1.21603 0.29142 1.21603 0.6489 L 1.21603 3.87263 C 1.21603 4.23011 0.94297 4.52153 0.60802 4.52153 Z" fill="#fffaee" fill-rule="nonzero"/></g><g transform="matrix(0 1 -1 0 31.67576 9.33394)"><path d="M 2.27047 5.55829 C 2.03301 5.55829 1.80733 5.40864 1.71011 5.15785 L 0.04765 0.89734 C -0.08299 0.56792 0.06435 0.18765 0.37548 0.05085 C 0.68661 -0.08857 1.038 0.06868 1.16864 0.40073 L 2.8311 4.66124 C 2.96174 4.99065 2.8144 5.37093 2.50327 5.50773 C 2.4274 5.54309 2.3488 5.55829 2.27047 5.55829 Z" fill="#fffaee" fill-rule="nonzero"/></g><g transform="matrix(0 1 -1 0 28.42762 4.36134)"><path d="M 2.74271 3.57767 C 2.58605 3.57767 2.43159 3.51424 2.313 3.38768 L 0.17809 1.1066 C -0.05936 0.85318 -0.05936 0.4425 0.17809 0.18908 C 0.41555 -0.06434 0.80254 -0.06171 1.0378 0.18908 L 3.17271 2.47016 C 3.41016 2.72358 3.41016 3.13426 3.17271 3.38768 C 3.05384 3.51453 2.89718 3.57767 2.74299 3.57767 L 2.74271 3.57767 Z" fill="#fffaee" fill-rule="nonzero"/></g><g transform="matrix(0 1 -1 0 23.24819 1.34709)"><path d="M 4.62438 3.06403 C 4.54605 3.06403 4.46772 3.04883 4.39405 3.0158 L 0.3784 1.25179 C 0.06727 1.115 -0.08227 0.73472 0.04591 0.4053 C 0.17409 0.07062 0.53506 -0.08897 0.83907 0.05045 L 4.85472 1.81446 C 5.16585 1.95126 5.31538 2.33153 5.18721 2.66095 C 5.08971 2.91174 4.8643 3.06403 4.62438 3.06403 Z" fill="#fffaee" fill-rule="nonzero"/></g><g transform="matrix(0 1 -1 0 22.99841 9.45027)"><path d="M 1.64541 2.67334 L 0.17768 1.10693 C -0.05923 0.85409 -0.05923 0.44195 0.17768 0.18941 C 0.41459 -0.06314 0.80076 -0.06314 1.03739 0.18941 L 2.50512 1.75582 C 2.74203 2.00866 2.74203 2.4208 2.50512 2.67334 C 2.26822 2.92588 1.88204 2.92618 1.64541 2.67334 Z" fill="#fffaee" fill-rule="nonzero"/></g><g transform="matrix(0 1 -1 0 17.19135 -0.00024)"><path d="M 3.62865 1.29779 L 0.60802 1.29779 C 0.27306 1.29779 0 1.00637 0 0.6489 C 0 0.29142 0.27306 0 0.60802 0 L 3.62865 0 C 3.96361 0 4.23667 0.29142 4.23667 0.6489 C 4.23667 1.00637 3.96361 1.29779 3.62865 1.29779 Z" fill="#fffaee" fill-rule="nonzero"/></g><g transform="matrix(0 1 -1 0 13.03345 1.31897)"><path d="M 0.60801 3.07313 C 0.37055 3.07313 0.14487 2.92348 0.04765 2.67269 C -0.08299 2.34327 0.06435 1.96299 0.37548 1.8262 L 4.36757 0.05196 C 4.67158 -0.0901 5.03256 0.06979 5.16074 0.40184 C 5.29138 0.73125 5.14403 1.11153 4.8329 1.24833 L 0.84081 3.02256 C 0.76494 3.05793 0.68634 3.07313 0.60801 3.07313 Z" fill="#fffaee" fill-rule="nonzero"/></g><g transform="matrix(0 1 -1 0 8.23163 4.36134)"><path d="M 0.60781 3.57603 C 0.45115 3.57603 0.29668 3.5126 0.17809 3.38603 C -0.05936 3.13261 -0.05936 2.72194 0.17809 2.46851 L 2.313 0.19007 C 2.55045 -0.06336 2.93525 -0.06336 3.17271 0.19007 C 3.41016 0.44349 3.41016 0.85416 3.17271 1.10758 L 1.0378 3.38603 C 0.91894 3.51289 0.76475 3.57603 0.60809 3.57603 L 0.60781 3.57603 Z" fill="#fffaee" fill-rule="nonzero"/></g><g transform="matrix(0 1 -1 0 7.02051 9.21762)"><path d="M 0.60874 5.58113 C 0.53041 5.58113 0.45208 5.56593 0.3784 5.5329 C 0.06727 5.3961 -0.08227 5.01582 0.04591 4.6864 L 1.69878 0.4031 C 1.82696 0.06842 2.19286 -0.08591 2.49194 0.04825 C 2.80307 0.18505 2.95261 0.56532 2.82444 0.89474 L 1.17156 5.17805 C 1.07406 5.42884 0.84866 5.58113 0.60874 5.58113 Z" fill="#fffaee" fill-rule="nonzero"/></g><g transform="matrix(0 1 -1 0 12.94817 9.44899)"><path d="M 0.17748 2.67509 C -0.05916 2.42255 -0.05916 2.01012 0.17748 1.75758 L 1.64685 0.18941 C 1.88348 -0.06314 2.26993 -0.06314 2.50656 0.18941 C 2.74319 0.44195 2.74347 0.85438 2.50656 1.10693 L 1.03719 2.67509 C 0.80055 2.92764 0.41411 2.92764 0.17748 2.67509 Z" fill="#fffaee" fill-rule="nonzero"/></g><g transform="matrix(0 1 -1 0 4.52156 14.89073)"><path d="M 0.60802 4.52153 C 0.27306 4.52153 0 4.23011 0 3.87263 L 0 0.6489 C 0 0.29142 0.27306 0 0.60802 0 C 0.94297 0 1.21603 0.29142 1.21603 0.6489 L 1.21603 3.87263 C 1.21603 4.23011 0.94297 4.52153 0.60802 4.52153 Z" fill="#fffaee" fill-rule="nonzero"/></g><g transform="matrix(0 1 -1 0 6.96595 18.78573)"><path d="M 2.27269 5.55944 C 2.03524 5.55944 1.80956 5.40978 1.71233 5.16162 L 0.04768 0.90112 C -0.08296 0.56907 0.06439 0.18879 0.37306 0.052 C 0.69131 -0.09006 1.04023 0.06983 1.16868 0.39925 L 2.83333 4.65975 C 2.96397 4.9918 2.81662 5.37178 2.50796 5.50887 C 2.42963 5.54424 2.3513 5.55944 2.27297 5.55944 L 2.27269 5.55944 Z" fill="#fffaee" fill-rule="nonzero"/></g><g transform="matrix(0 1 -1 0 12.67805 14.89201)"><path d="M 0.17802 5.07894 C 0.0671 4.96056 0 4.7995 0 4.62003 L 0 0.64861 C 0 0.29025 0.27196 0 0.60774 0 C 0.94352 0 1.21548 0.29025 1.21548 0.64861 L 1.21548 4.62003 C 1.21548 4.97839 0.94352 5.26864 0.60774 5.26864 C 0.43985 5.26864 0.28867 5.19703 0.17775 5.07865 L 0.17802 5.07894 Z" fill="#fffaee" fill-rule="nonzero"/></g><g transform="matrix(0 1 -1 0 17.19035 19.12065)"><path d="M 0.17802 1.10751 C 0.0671 0.98913 0 0.82808 0 0.64861 C 0 0.29025 0.27196 0 0.60774 0 L 4.32897 0 C 4.66474 0 4.93671 0.29025 4.93671 0.64861 C 4.93671 1.00696 4.66474 1.29721 4.32897 1.29721 L 0.60774 1.29721 C 0.43985 1.29721 0.28867 1.2256 0.17775 1.10722 L 0.17802 1.10751 Z" fill="#fffaee" fill-rule="nonzero"/></g><g transform="matrix(0 1 -1 0 25.67477 14.89201)"><path d="M 0.17802 5.07894 C 0.0671 4.96056 0 4.7995 0 4.62003 L 0 0.6486 C 0 0.29025 0.27196 0 0.60774 0 C 0.94352 0 1.21548 0.29025 1.21548 0.6486 L 1.21548 4.62003 C 1.21548 4.97839 0.94352 5.26864 0.60774 5.26864 C 0.43985 5.26864 0.28867 5.19703 0.17775 5.07865 L 0.17802 5.07894 Z" fill="#fffaee" fill-rule="nonzero"/></g><g transform="matrix(0 1 -1 0 17.19035 6.94351)"><path d="M 0.17802 1.10751 C 0.0671 0.98913 0 0.82808 0 0.64861 C 0 0.29025 0.27196 0 0.60774 0 L 4.32897 0 C 4.66474 0 4.93671 0.29025 4.93671 0.64861 C 4.93671 1.00696 4.66474 1.29721 4.32897 1.29721 L 0.60774 1.29721 C 0.43985 1.29721 0.28867 1.2256 0.17775 1.10722 L 0.17802 1.10751 Z" fill="#fffaee" fill-rule="nonzero"/></g><g transform="matrix(0 1 -1 0 8.23163 23.28664)"><path d="M 2.74271 3.57603 C 2.58605 3.57603 2.43158 3.5126 2.31299 3.38603 L 0.17809 1.10758 C -0.05936 0.85416 -0.05936 0.44349 0.17809 0.19007 C 0.41555 -0.06336 0.80035 -0.06336 1.0378 0.19007 L 3.17271 2.46851 C 3.41016 2.72194 3.41016 3.13261 3.17271 3.38603 C 3.05384 3.51289 2.89965 3.57603 2.74299 3.57603 L 2.74271 3.57603 Z" fill="#fffaee" fill-rule="nonzero"/></g><g transform="matrix(0 1 -1 0 12.90131 24.4205)"><path d="M 4.62219 3.06257 C 4.54386 3.06257 4.46553 3.04737 4.39186 3.01434 L 0.3784 1.25034 C 0.06727 1.11354 -0.08227 0.73326 0.04591 0.40385 C 0.17409 0.0718 0.53753 -0.0878 0.83907 0.049 L 4.85253 1.81301 C 5.16365 1.9498 5.31319 2.33008 5.18502 2.65949 C 5.08779 2.91028 4.86211 3.06257 4.62219 3.06257 Z" fill="#fffaee" fill-rule="nonzero"/></g><g transform="matrix(0 1 -1 0 12.94817 18.86754)"><path d="M 1.64531 2.67334 L 0.17758 1.10693 C -0.05906 0.85438 -0.05933 0.44195 0.17758 0.18941 C 0.41448 -0.06314 0.80066 -0.06314 1.03729 0.18941 L 2.50502 1.75582 C 2.74193 2.00866 2.74193 2.4208 2.50502 2.67334 C 2.26811 2.92588 1.88194 2.92618 1.64531 2.67334 Z" fill="#fffaee" fill-rule="nonzero"/></g><g transform="matrix(0 1 -1 0 17.19135 26.76235)"><path d="M 3.62865 1.29779 L 0.60802 1.29779 C 0.27306 1.29779 0 1.00637 0 0.6489 C 0 0.29142 0.27306 0 0.60802 0 L 3.62865 0 C 3.96361 0 4.23667 0.29142 4.23667 0.6489 C 4.23667 1.00637 3.96361 1.29779 3.62865 1.29779 Z" fill="#fffaee" fill-rule="nonzero"/></g><g transform="matrix(0 1 -1 0 23.12248 24.47419)"><path d="M 0.60801 3.07239 C 0.37055 3.07239 0.14487 2.92273 0.04765 2.67194 C -0.08299 2.34253 0.06435 1.96225 0.37548 1.82545 L 4.36757 0.05122 C 4.6787 -0.08821 5.03256 0.06642 5.16074 0.40109 C 5.29138 0.73051 5.14403 1.11079 4.8329 1.24759 L 0.84081 3.02182 C 0.76494 3.05719 0.68634 3.07239 0.60801 3.07239 Z" fill="#fffaee" fill-rule="nonzero"/></g></g><g transform="matrix(1 0 0 1 371.96582 627.85645)"><g fill="#fffaee"><path d="M 0.418 -0.013 Q 0.348 -0.013 0.282 0.012 Q 0.216 0.037 0.163 0.085 Q 0.11 0.133 0.078 0.201 Q 0.047 0.269 0.047 0.356 Q 0.047 0.443 0.078 0.511 Q 0.11 0.579 0.163 0.626 Q 0.216 0.674 0.282 0.699 Q 0.348 0.724 0.418 0.724 Q 0.488 0.724 0.554 0.699 Q 0.62 0.674 0.673 0.626 Q 0.726 0.579 0.757 0.511 Q 0.788 0.443 0.788 0.356 Q 0.788 0.269 0.757 0.201 Q 0.726 0.133 0.673 0.085 Q 0.62 0.037 0.554 0.012 Q 0.488 -0.013 0.418 -0.013 Z M 0.418 0.033 Q 0.477 0.033 0.534 0.054 Q 0.591 0.076 0.637 0.117 Q 0.683 0.159 0.71 0.219 Q 0.738 0.279 0.738 0.356 Q 0.738 0.433 0.71 0.493 Q 0.683 0.553 0.637 0.594 Q 0.591 0.636 0.534 0.657 Q 0.477 0.679 0.418 0.679 Q 0.358 0.679 0.301 0.657 Q 0.244 0.636 0.198 0.594 Q 0.152 0.553 0.124 0.493 Q 0.097 0.433 0.097 0.356 Q 0.097 0.279 0.124 0.219 Q 0.152 0.159 0.198 0.117 Q 0.244 0.076 0.301 0.054 Q 0.358 0.033 0.418 0.033 Z M 0.422 0.16 Q 0.33 0.16 0.283 0.213 Q 0.236 0.266 0.236 0.357 Q 0.236 0.448 0.284 0.5 Q 0.333 0.552 0.42 0.552 Q 0.466 0.552 0.499 0.537 Q 0.533 0.522 0.553 0.494 Q 0.574 0.467 0.58 0.429 L 0.524 0.429 Q 0.517 0.464 0.495 0.484 Q 0.474 0.504 0.421 0.504 Q 0.357 0.504 0.323 0.466 Q 0.289 0.428 0.289 0.357 Q 0.289 0.285 0.323 0.246 Q 0.357 0.208 0.421 0.208 Q 0.471 0.208 0.494 0.224 Q 0.517 0.241 0.524 0.278 L 0.58 0.278 Q 0.576 0.243 0.556 0.216 Q 0.537 0.19 0.503 0.175 Q 0.47 0.16 0.422 0.16 Z" transform="matrix(15.61644 0 0 -15.61644 0 15.05164)"/><path d="M 0.057 0.049 L 0.299 0.308 Q 0.345 0.357 0.374 0.394 Q 0.403 0.432 0.417 0.464 Q 0.432 0.497 0.432 0.531 Q 0.432 0.596 0.39 0.63 Q 0.348 0.665 0.278 0.665 Q 0.208 0.665 0.163 0.623 Q 0.118 0.582 0.12 0.51 L 0.062 0.51 Q 0.061 0.575 0.089 0.621 Q 0.117 0.667 0.167 0.692 Q 0.217 0.717 0.281 0.717 Q 0.348 0.717 0.394 0.694 Q 0.441 0.672 0.466 0.63 Q 0.491 0.589 0.491 0.531 Q 0.491 0.493 0.478 0.457 Q 0.465 0.422 0.43 0.376 Q 0.396 0.331 0.331 0.262 L 0.103 0.018 L 0.107 0.052 L 0.5 0.052 L 0.5 0 L 0.057 0 L 0.057 0.049 Z" transform="matrix(15.61644 0 0 -15.61644 17.09939 15.05164)"/><path d="M 0.296 -0.01 Q 0.209 -0.01 0.154 0.029 Q 0.1 0.069 0.075 0.149 Q 0.05 0.23 0.05 0.354 Q 0.05 0.478 0.075 0.558 Q 0.101 0.638 0.155 0.677 Q 0.21 0.717 0.296 0.717 Q 0.383 0.717 0.437 0.677 Q 0.492 0.638 0.517 0.558 Q 0.543 0.478 0.543 0.354 Q 0.543 0.231 0.517 0.15 Q 0.492 0.069 0.437 0.029 Q 0.383 -0.01 0.296 -0.01 Z M 0.296 0.042 Q 0.398 0.042 0.441 0.119 Q 0.484 0.196 0.484 0.354 Q 0.484 0.512 0.441 0.588 Q 0.398 0.665 0.296 0.665 Q 0.195 0.665 0.152 0.588 Q 0.109 0.512 0.109 0.354 Q 0.109 0.196 0.151 0.119 Q 0.194 0.042 0.296 0.042 Z" transform="matrix(15.61644 0 0 -15.61644 29.85241 15.05164)"/><path d="M 0.057 0.049 L 0.299 0.308 Q 0.345 0.357 0.374 0.394 Q 0.403 0.432 0.417 0.464 Q 0.432 0.497 0.432 0.531 Q 0.432 0.596 0.39 0.63 Q 0.348 0.665 0.278 0.665 Q 0.208 0.665 0.163 0.623 Q 0.118 0.582 0.12 0.51 L 0.062 0.51 Q 0.061 0.575 0.089 0.621 Q 0.117 0.667 0.167 0.692 Q 0.217 0.717 0.281 0.717 Q 0.348 0.717 0.394 0.694 Q 0.441 0.672 0.466 0.63 Q 0.491 0.589 0.491 0.531 Q 0.491 0.493 0.478 0.457 Q 0.465 0.422 0.43 0.376 Q 0.396 0.331 0.331 0.262 L 0.103 0.018 L 0.107 0.052 L 0.5 0.052 L 0.5 0 L 0.057 0 L 0.057 0.049 Z" transform="matrix(15.61644 0 0 -15.61644 43.16969 15.05164)"/><path d="M 0.069 0.222 Q 0.07 0.261 0.078 0.298 Q 0.087 0.335 0.109 0.377 Q 0.132 0.419 0.172 0.473 L 0.347 0.707 L 0.418 0.707 L 0.181 0.393 L 0.173 0.402 Q 0.194 0.415 0.211 0.423 Q 0.228 0.432 0.248 0.436 Q 0.268 0.441 0.297 0.441 Q 0.37 0.441 0.421 0.414 Q 0.472 0.388 0.498 0.338 Q 0.525 0.288 0.525 0.217 Q 0.525 0.149 0.499 0.098 Q 0.473 0.047 0.422 0.018 Q 0.371 -0.01 0.297 -0.01 Q 0.185 -0.01 0.126 0.053 Q 0.068 0.117 0.069 0.222 Z M 0.128 0.217 Q 0.128 0.137 0.167 0.089 Q 0.207 0.042 0.297 0.042 Q 0.386 0.042 0.426 0.089 Q 0.466 0.137 0.466 0.217 Q 0.466 0.297 0.426 0.343 Q 0.386 0.389 0.297 0.389 Q 0.217 0.389 0.172 0.343 Q 0.128 0.297 0.128 0.217 Z" transform="matrix(15.61644 0 0 -15.61644 55.92271 15.05164)"/></g></g><g transform="matrix(1 0 0 1 370 678)"><g fill="#fffaee"><path d="M 0.042 0.544 Q 0.042 0.587 0.057 0.62 Q 0.072 0.653 0.097 0.675 Q 0.121 0.696 0.151 0.707 Q 0.182 0.718 0.213 0.718 Q 0.244 0.718 0.274 0.707 Q 0.305 0.696 0.33 0.675 Q 0.354 0.653 0.369 0.62 Q 0.384 0.587 0.384 0.544 L 0.384 0.508 L 0.282 0.508 L 0.282 0.544 Q 0.282 0.581 0.261 0.598 Q 0.241 0.616 0.213 0.616 Q 0.185 0.616 0.164 0.598 Q 0.144 0.581 0.144 0.544 L 0.144 0.168 Q 0.144 0.131 0.164 0.113 Q 0.185 0.096 0.213 0.096 Q 0.241 0.096 0.261 0.113 Q 0.282 0.131 0.282 0.168 L 0.282 0.302 L 0.201 0.302 L 0.201 0.392 L 0.384 0.392 L 0.384 0.168 Q 0.384 0.123 0.369 0.091 Q 0.354 0.059 0.33 0.038 Q 0.305 0.016 0.274 0.005 Q 0.244 -0.006 0.213 -0.006 Q 0.182 -0.006 0.151 0.005 Q 0.121 0.016 0.097 0.038 Q 0.072 0.059 0.057 0.091 Q 0.042 0.123 0.042 0.168 L 0.042 0.544 Z" transform="matrix(13.08961 0 0 -13.08961 0 8.775)"/><path d="M 0.048 0 L 0.048 0.712 L 0.199 0.712 Q 0.287 0.712 0.332 0.664 Q 0.378 0.616 0.378 0.528 L 0.378 0.195 Q 0.378 0.095 0.329 0.047 Q 0.281 0 0.19 0 L 0.048 0 Z M 0.15 0.616 L 0.15 0.096 L 0.197 0.096 Q 0.24 0.096 0.258 0.117 Q 0.276 0.139 0.276 0.185 L 0.276 0.528 Q 0.276 0.57 0.259 0.593 Q 0.242 0.616 0.197 0.616 L 0.15 0.616 Z" transform="matrix(13.08961 0 0 -13.08961 0 20.775)"/></g></g><g transform="matrix(1 0 0 1 349 327.07129)"><path d="M 0 192 C 0 85.96133 85.96133 0 192 0 L 192 0 C 298.03867 0 384 85.96133 384 192 L 384 273 L 0 273 L 0 192 Z" fill="none" stroke="#fffaee" stroke-width="1.60289" stroke-linejoin="miter"/></g></g></svg>
