<svg xmlns="http://www.w3.org/2000/svg" width="50" height="58.63781" viewBox="0 0 50 58.63781" shape-rendering="geometricPrecision"><title>Group 11</title><g><g><path d="M 2.88426 28.21929 L 5.46717 28.21929 L 5.46717 34.96107 C 5.46717 38.89159 7.31639 42.0435 10.81455 44.07614 C 14.05443 45.95905 18.78977 46.9136 24.8877 46.9136 C 36.64745 46.9136 44.54967 42.11088 44.54967 34.96107 L 44.54967 28.21929 L 47.11574 28.21929 C 49.28502 28.60111 50 30.63375 50 30.63375 L 50 21.55799 C 50 21.55799 49.27566 23.62619 47.06334 23.98368 L 44.54967 23.98368 L 44.54967 14.06191 C 44.94272 11.91136 46.95852 11.20012 46.95852 11.20012 L 37.88276 11.20012 C 37.88276 11.20012 39.96032 11.92633 40.31032 14.14988 L 40.31032 23.98368 L 29.09897 23.98368 L 37.19585 5.40541 L 37.56831 4.55005 C 38.35629 3.12383 39.70577 2.43505 39.70577 2.43505 L 15.60418 2.43505 C 13.45175 2.02703 12.7611 0 12.7611 0 L 12.71618 9.07577 C 12.71618 9.07577 13.46298 7.00569 15.6884 6.67627 L 32.02066 6.67627 L 24.47593 23.98368 L 9.70278 23.98368 L 9.70278 14.03946 C 10.10519 11.90574 12.10788 11.20012 12.10788 11.20012 L 3.03212 11.20012 C 3.03212 11.20012 5.10968 11.92633 5.45968 14.14988 L 5.46717 23.98368 L 2.93666 23.98368 C 0.72434 23.62619 0 21.55799 0 21.55799 L 0 30.63375 C 0 30.63375 0.71498 28.60111 2.88426 28.21929 Z M 9.70278 28.21929 L 40.31032 28.21929 L 40.31032 34.96107 C 40.31032 39.50363 33.96721 42.67612 24.88583 42.67612 C 23.49891 42.67612 22.2112 42.62559 21.01332 42.52639 L 26.81927 29.20566 L 22.1981 29.20566 L 16.68226 41.86195 C 12.04612 40.73145 9.70465 38.42367 9.70465 34.9592 L 9.70465 28.21741 L 9.70278 28.21929 Z" fill="#fffaee" fill-rule="nonzero"/></g><g transform="matrix(1 0 0 1 9.20678 46.90609)"><path d="M 25.84787 5.06102 L 7.68511 5.08161 L 9.54368 0.81792 C 8.33458 0.67006 6.86906 0.42113 5.27813 0 L 2.042 7.42307 C 1.24654 8.73137 0 9.32283 0 9.32283 L 1.21472 9.32283 L 25.73931 9.30411 C 27.96099 9.65599 28.68908 11.73168 28.68908 11.73168 L 28.68908 2.65591 C 28.68908 2.65591 27.98345 4.6586 25.84974 5.06102 L 25.84787 5.06102 Z" fill="#fffaee" fill-rule="nonzero"/></g></g></svg>
