<svg xmlns="http://www.w3.org/2000/svg" width="50" height="40" viewBox="0 0 50 40" shape-rendering="geometricPrecision"><title>Vector</title><g><path d="M 25 0 C 11.21412 0 0 8.96855 0 20 C 0 31.03145 11.21412 40 25 40 C 38.78588 40 50 31.03145 50 20 C 50 8.96855 38.78588 0 25 0 Z M 23.8951 3.26415 L 23.8951 10.75472 C 21.65355 10.72327 19.48184 10.5912 17.43714 10.37736 C 19.54534 7.23899 22.1806 4.72956 23.8951 3.26415 Z M 23.8951 12.81132 L 23.8951 18.97484 L 14.13513 18.97484 C 14.32563 16.61635 15.13843 14.36478 16.26238 12.31447 C 18.66269 12.61006 21.24079 12.77987 23.90145 12.81761 L 23.8951 12.81132 Z M 23.8951 21.02516 L 23.8951 27.18868 C 21.23444 27.22641 18.65634 27.39622 16.25603 27.69182 C 15.13843 25.64151 14.31928 23.38994 14.13513 21.03144 L 23.8951 21.03144 L 23.8951 21.02516 Z M 23.8951 29.23899 L 23.8951 36.73585 C 22.1806 35.27044 19.53899 32.76101 17.43079 29.62264 C 19.47549 29.40251 21.65355 29.27044 23.8951 29.23899 Z M 26.11125 36.72956 L 26.11125 29.23899 C 28.33376 29.27044 30.50546 29.4088 32.56287 29.63522 C 30.45466 32.7673 27.82576 35.27044 26.11125 36.73585 L 26.11125 36.72956 Z M 26.11125 27.18239 L 26.11125 21.01887 L 35.87122 21.01887 C 35.68073 23.38365 34.86792 25.63522 33.74397 27.68553 C 31.34366 27.38994 28.77191 27.21383 26.11125 27.1761 L 26.11125 27.18239 Z M 26.11125 18.96855 L 26.11125 12.80503 C 28.77191 12.7673 31.34366 12.59119 33.74397 12.2956 C 34.86792 14.34591 35.68707 16.60377 35.87122 18.96226 L 26.11125 18.96226 L 26.11125 18.96855 Z M 26.11125 10.75472 L 26.11125 3.26415 C 27.82576 4.72956 30.45466 7.2327 32.56287 10.36478 C 30.50546 10.59119 28.33376 10.72327 26.11125 10.76101 L 26.11125 10.75472 Z M 28.18771 2.2327 C 33.77572 2.84906 38.72238 5.07547 42.24664 8.28931 C 40.29083 9.03145 37.78893 9.62893 34.97587 10.05031 C 32.87402 6.67296 30.14986 3.94969 28.18771 2.2327 Z M 15.01778 10.06918 C 12.20473 9.6478 9.71552 9.05031 7.74067 8.30189 C 11.26492 5.07547 16.21793 2.84906 21.81865 2.22641 C 19.85649 3.94969 17.12598 6.67924 15.02413 10.06289 L 15.01778 10.06918 Z M 13.94463 11.98113 C 12.85878 14.12579 12.07772 16.47799 11.90627 18.96855 L 2.25425 18.96855 C 2.49556 15.62264 3.90526 12.52201 6.16586 9.91195 C 8.24232 10.77987 10.90297 11.48428 13.94463 11.98113 Z M 11.90627 21.02516 C 12.07772 23.51572 12.85878 25.86792 13.94463 28.01258 C 10.90932 28.50943 8.24867 29.20755 6.16586 30.08176 C 3.90526 27.4717 2.49556 24.37107 2.25425 21.02516 L 11.89992 21.02516 L 11.90627 21.02516 Z M 15.01778 29.92453 C 17.12598 33.30818 19.85014 36.03773 21.81229 37.76101 C 16.21158 37.13836 11.25857 34.91195 7.73432 31.68554 C 9.71552 30.93711 12.19837 30.33962 15.01143 29.91824 L 15.01778 29.92453 Z M 34.96952 29.9434 C 37.78893 30.36478 40.28448 30.96855 42.24028 31.7044 C 38.71603 34.91824 33.76937 37.14465 28.18136 37.76101 C 30.14351 36.03773 32.86132 33.31446 34.96952 29.9434 Z M 36.05537 28.01887 C 37.14758 25.86792 37.92863 23.51572 38.10008 21.01887 L 47.74575 21.01887 C 47.50445 24.37107 46.08839 27.47799 43.82144 30.09434 C 41.75134 29.22013 39.09068 28.51572 36.05537 28.01887 Z M 38.10008 18.96855 C 37.92863 16.47799 37.14758 14.1195 36.05537 11.96855 C 39.09068 11.4717 41.74499 10.76729 43.82144 9.89308 C 46.08839 12.50943 47.50445 15.61635 47.74575 18.96855 L 38.10008 18.96855 Z" fill="#fffaee" fill-rule="nonzero"/></g></svg>
